<?xml version="1.0" encoding="UTF-8"?>
<svg id="Layer_3" data-name="Layer 3" xmlns="http://www.w3.org/2000/svg" viewBox="0 0 279.51 279.51">
  <defs>
    <style>
      .cls-1 {
        fill: #fff;
      }
    </style>
  </defs>
  <path class="cls-1" d="M80.94,124.98c-.09.03-.18.05-.26.05.06,0,.14.02.23.05.01-.03.02-.07.04-.1Z"/>
  <path class="cls-1" d="M139.76,0C62.57,0,0,62.57,0,139.76s62.57,139.76,139.76,139.76,139.76-62.57,139.76-139.76S216.94,0,139.76,0ZM256.36,151.11c-5.01,3.63-16.69,10.51-35.04,20.64-1.71,9.17-4,16.9-6.88,23.2-1.81,4.16-3.87,7.54-6.16,10.16-2.29,2.61-5.33,4.83-9.12,6.64-3.79,1.81-8.03,2.72-12.72,2.72s-8.24-.78-10.64-2.32c-2.4-1.55-3.6-4.16-3.6-7.84s.86-6.86,2.56-9.52c.96-1.39,1.79-2.53,2.48-3.44.69-.91,1.73-2.11,3.12-3.6,1.39-1.49,2.29-2.51,2.72-3.04,3.52-3.84,9.06-8.27,16.64-13.28,3.73-2.46,6.45-4.27,8.16-5.44l5.28-14.08c-2.24,3.95-5.2,6.99-8.88,9.12-3.68,2.14-6.59,3.2-8.72,3.2-4.16,0-7.74-1.38-10.72-4.16-2.99-2.77-4.48-6.4-4.48-10.88,0-2.58.18-5.13.51-7.66-2,.41-4.01.62-6.03.62-7.63,0-11.44-2.67-11.44-8,0-.85.11-1.81.32-2.88-.32.75-1.71,3.81-4.16,9.2-2.46,5.39-5.01,11.71-7.68,18.96-1.71,3.2-4.48,4.8-8.32,4.8-3.32,0-5.58-1.53-6.79-4.58-4.3,3.47-9.44,5.22-15.45,5.22-3.73,0-6.35-1.2-7.84-3.6-1.5-2.4-2.24-4.67-2.24-6.8s.11-3.62.32-4.48c-1.92,4.27-4.59,7.82-8,10.64-3.42,2.83-7.52,4.24-12.32,4.24s-8.46-1.68-10.96-5.04c-2.51-3.36-3.76-7.54-3.76-12.56,0-2.55.24-5.27.71-8.15-.63.29-1.26.55-1.91.71-1.87.48-4.61.99-8.24,1.52-3.63.53-6.24,1.01-7.84,1.44,2.99,10.56,4.48,21.12,4.48,31.68,0,6.08-1.81,12.24-5.44,18.48-3.63,6.24-8.8,10.58-15.52,13.04-1.71.42-2.83.64-3.36.64-7.04,0-10.56-8.8-10.56-26.4s1.71-35.84,5.12-54.72c2.02-10.77,4.48-20.56,7.36-29.36,2.88-8.8,6.75-16.19,11.6-22.16,4.85-5.97,10.27-8.96,16.24-8.96,7.68,0,11.52,4.8,11.52,14.4,0,5.12-1.39,10.99-4.16,17.6-1.39,3.2-2.72,6.11-4,8.72-1.28,2.61-2.96,5.47-5.04,8.56-2.08,3.09-3.66,5.44-4.72,7.04-1.07,1.6-2.56,3.65-4.48,6.16-1.92,2.51-2.94,3.87-3.04,4.08.21,0,.67-.1,1.36-.32.69-.21,1.49-.32,2.4-.32s1.92-.05,3.04-.16c1.12-.1,2.08-.19,2.88-.24.8-.05,1.71-.24,2.72-.56,1.01-.32,1.78-.53,2.32-.64.53-.1,1.41-.43,2.64-.96,1.22-.53,2.08-.91,2.56-1.12.48-.21,1.52-.67,3.12-1.36,1.19-.52,2.11-.93,2.77-1.24,1.6-4.33,3.4-7.74,5.39-10.2,1.49-2.13,3.41-3.2,5.76-3.2s4.27.38,5.76,1.12c1.49.75,2.24,1.71,2.24,2.88,0,.32-.51,1.52-1.52,3.6-1.02,2.08-2.46,5.98-4.32,11.68-1.87,5.71-2.83,10.78-2.88,15.2-.05,4.43,1.25,6.64,3.92,6.64s5.52-1.46,8.56-4.4c3.04-2.93,5.3-6.69,6.8-11.28l5.6-17.76c.96-3.09,2.05-5.17,3.28-6.24,1.22-1.06,2.85-1.6,4.88-1.6,4.69,0,7.04,1.39,7.04,4.16,0,.96-.83,3.73-2.48,8.32-1.65,4.59-3.07,9.79-4.24,15.6-1.18,5.81-1.76,8.88-1.76,9.2,0,2.03.9,3.04,2.72,3.04,2.72,0,6.06-2.13,10.01-6.37.34-9.06,1.69-17.66,4.07-25.79,2.02-5.23,5.06-7.84,9.12-7.84,1.6,0,2.9.53,3.92,1.6,1.01,1.07,1.52,2.16,1.52,3.28s-.67,4.75-2,10.88c-1.33,6.14-2.43,10.38-3.28,12.72,2.56-5.97,6.24-12.19,11.04-18.64,4.8-6.45,8.53-9.68,11.2-9.68,5.33,0,8,1.76,8,5.28,0,2.24-.59,4.75-1.76,7.52-1.17,2.77-1.76,4.21-1.76,4.32,0,.54.82.8,2.48.8.99,0,2.99-.53,5.98-1.57.92-2.38,1.99-4.74,3.22-7.07.75-1.49,2.05-2.8,3.92-3.92,1.87-1.12,3.54-1.68,5.04-1.68s2.85.43,4.08,1.28c1.22.85,1.84,2.08,1.84,3.68s-.8,3.73-2.4,6.4c-.64,1.18-1.12,2.08-1.44,2.72-1.92,7.68-2.88,13.57-2.88,17.68s1.76,6.16,5.28,6.16h1.12c4.37-.96,7.94-5.92,10.72-14.88l4.32-14.72c1.38-5.12,3.78-7.68,7.2-7.68,1.49,0,2.88.35,4.16,1.04,1.28.69,1.92,1.68,1.92,2.96,0,2.88-.83,8.08-2.48,15.6-1.66,7.52-3.12,15.17-4.4,22.96,16-10.02,25.44-16.1,28.32-18.24,1.28-.96,2.53-1.44,3.76-1.44s2.37.54,3.44,1.6c1.06,1.07,1.6,2.64,1.6,4.72s-1.44,4.08-4.32,6Z"/>
  <path class="cls-1" d="M49.88,154.64c-1.33-8.53-3.12-14.67-5.36-18.4v1.28l-1.6,39.36c0,11.3.64,16.96,1.92,16.96,4.8,0,7.2-3.63,7.2-10.88l-.16-4.16c0-7.58-.67-15.62-2-24.16Z"/>
  <path class="cls-1" d="M69,86c0-3.84-.54-5.76-1.6-5.76-2.67,0-5.23,2.35-7.68,7.04-2.45,4.69-4.4,9.87-5.84,15.52-1.44,5.65-2.67,10.88-3.68,15.68-1.01,4.8-1.57,7.2-1.68,7.2,5.44-6.5,10.5-14.45,15.2-23.84,3.52-6.72,5.28-12,5.28-15.84Z"/>
  <path class="cls-1" d="M194.04,189.83c-5.07,5.97-7.6,10.03-7.6,12.16,0,.85.27,1.28.8,1.28l1.12.16c3.62,0,7.07-2.67,10.32-8,3.25-5.33,5.41-10.83,6.48-16.48-2.35,1.28-6.06,4.9-11.12,10.88Z"/>
</svg>